<svg xmlns="http://www.w3.org/2000/svg" width="88" height="32" fill="none" viewBox="0 0 88 32">
  <path fill="#fff" d="M.378 16c0 6.6.016 12 .038 12 .033 0 4.524-.823 5.075-.932l.286-.054v-8.81h3.417v-.806c0-.44.016-1.589.038-2.558l.032-1.752H5.778V9.224H7.79c1.107 0 2.01-.01 2.01-.027 0-.06.442-4.708.47-4.942L10.3 4H.379v12ZM82.794 4.703l-4.396.358v21.682l.18.027c.161.028 8.673.637 8.844.631.05 0 .066-.576.066-2.693v-2.695h-3.746v-3.917h3.195v-4.68h-3.306v-3.103l.127-.022c.066-.016.628-.038 1.25-.06a75.332 75.332 0 0 0 1.808-.065l.672-.033V4.327l-.148.006c-.089.005-2.133.168-4.546.37Zm-28.227.751c.055.545.684 8.746.673 8.757-.006.01-.816-1.954-1.802-4.365a404.855 404.855 0 0 0-1.83-4.446c-.033-.06-1.553.218-4.05.74l-.236.048v18.71h4.904l-.028-.391c-.054-.729-.26-6.76-.237-6.998.017-.213.182.158 1.747 3.891.947 2.27 1.752 4.147 1.774 4.18.033.032.799-.017 2.099-.126 1.13-.098 2.055-.186 2.055-.19.006-.005-.022-3.93-.06-8.718-.04-4.79-.072-9.313-.072-10.059L59.5 5.144h-4.965l.033.31Zm-38.789.022c-3.294.218-5.107 2.444-5.681 6.96-.116.936-.165 4.115-.082 5.226.275 3.602 1.261 5.942 3.013 7.134.943.636 2.359.98 3.758.898 1.593-.087 2.677-.535 3.653-1.497.8-.789 1.235-1.53 1.654-2.793.583-1.762.847-4.396.715-7.139-.148-3.07-.616-4.98-1.582-6.444-.92-1.393-2.373-2.225-4.071-2.329-.27-.016-.556-.032-.633-.043-.248 0-.496.008-.744.027Zm.777 4.277c.401.43.573 2.145.573 5.813 0 4.516-.287 6.394-.914 5.991-.271-.179-.475-1.055-.574-2.509-.071-1.06-.071-5.92 0-6.938.104-1.437.292-2.231.574-2.422.153-.11.18-.104.341.065Zm6.963 5.617v9.91h5.053l.033-.691c.022-.386.066-1.639.1-2.793.032-1.153.076-2.165.099-2.247.027-.114.264.622.992 3.102.528 1.79.975 3.276.996 3.298.044.05 5.213-.353 5.268-.408.017-.022-.556-1.801-1.273-3.968l-1.3-3.929.276-.239c.914-.789 1.669-2.313 1.884-3.82.094-.66.033-2.291-.11-2.896-.551-2.367-2.012-4.206-3.873-4.892-.81-.295-.744-.288-4.574-.31l-3.57-.022v9.905Zm5.682-5.214c.39.19.71.68.881 1.355.116.452.098 1.883-.027 2.34-.238.86-.656 1.361-1.284 1.551l-.127.033V9.987l.181.038c.094.016.266.076.376.131Zm6.606-2.1v2.53h2.81v14.585h5.29V11.458h2.865V6.395l-.121-.022c-.116-.026-10.623-.854-10.772-.849-.055 0-.072.546-.072 2.531Zm24.847 7.89v9.877h5.454V6.068h-5.454v9.877Zm11.682-9.191c-2.985.158-5.47.289-5.52.289-.094.005-.1.163-.1 2.563v2.557h2.81v14.313h5.346V11.565h2.974V9.008c0-1.41-.017-2.552-.04-2.552-.027.005-2.483.136-5.47.299Z"/>
</svg>
