<svg 
 xmlns="http://www.w3.org/2000/svg"
 xmlns:xlink="http://www.w3.org/1999/xlink"
 width="577px" height="364px">
<path fill-rule="evenodd"  fill="rgb(255, 255, 255)"
 d="M539.840,313.037 L558.425,313.037 C564.055,313.037 568.562,314.569 571.941,317.632 C575.320,320.694 577.009,324.779 577.009,329.882 L577.009,344.540 C577.009,350.522 575.078,355.259 571.217,358.759 C567.355,362.260 562.124,364.010 555.529,364.010 L441.608,364.010 C438.871,364.010 436.136,363.500 433.402,362.478 C430.664,361.460 428.334,360.072 426.403,358.322 L416.266,348.915 C414.494,347.165 413.008,345.052 411.801,342.571 C410.594,340.093 409.991,337.614 409.991,335.133 L409.991,219.406 C409.991,216.928 410.553,214.449 411.680,211.968 C412.804,209.490 414.335,207.374 416.266,205.623 L428.334,194.685 C430.265,192.935 432.595,191.551 435.333,190.529 C438.067,189.510 440.801,188.997 443.539,188.997 L555.529,188.997 C562.124,188.997 567.355,190.747 571.217,194.248 C575.078,197.748 577.009,202.489 577.009,208.467 L577.009,228.594 C577.009,233.701 575.320,237.782 571.941,240.845 C568.562,243.907 564.055,245.439 558.425,245.439 L539.840,245.439 C537.910,245.439 536.944,246.314 536.944,248.064 C536.944,249.814 537.910,250.689 539.840,250.689 L558.425,250.689 C564.055,250.689 568.562,252.221 571.941,255.283 C575.320,258.346 577.009,262.431 577.009,267.534 L577.009,291.161 C577.009,296.268 575.320,300.349 571.941,303.412 C568.562,306.474 564.055,308.006 558.425,308.006 L539.840,308.006 C537.910,308.006 536.944,308.809 536.944,310.412 C536.944,312.162 537.910,313.037 539.840,313.037 ZM570.807,160.305 L561.609,169.503 C559.857,171.255 557.739,172.645 555.258,173.664 C552.774,174.687 550.293,175.197 547.812,175.197 L439.188,175.197 C436.704,175.197 434.223,174.687 431.742,173.664 C429.258,172.645 427.143,171.255 425.391,169.503 L416.193,160.305 C414.441,158.553 413.052,156.439 412.032,153.954 C411.009,151.473 410.499,148.993 410.499,146.508 L410.499,121.104 C410.499,118.185 411.375,115.886 413.127,114.206 C414.879,112.529 417.213,111.687 420.135,111.687 L429.552,111.687 C430.866,111.687 431.667,111.177 431.961,110.154 C432.252,109.573 432.252,108.987 431.961,108.402 C431.667,107.821 431.304,107.307 430.866,106.869 L416.193,92.196 C414.441,90.444 413.052,88.330 412.032,85.845 C411.009,83.364 410.499,80.884 410.499,78.399 L410.499,29.124 C410.499,26.643 411.009,24.163 412.032,21.678 C413.052,19.197 414.441,17.079 416.193,15.327 L425.829,5.691 C427.581,3.939 429.696,2.553 432.180,1.530 C434.661,0.511 437.142,-0.003 439.626,-0.003 L547.155,-0.003 C549.636,-0.003 552.117,0.545 554.601,1.640 C557.082,2.735 559.200,4.086 560.952,5.691 L570.807,15.327 C572.559,17.079 573.945,19.197 574.968,21.678 C575.988,24.163 576.501,26.643 576.501,29.124 L576.501,60.003 C576.501,62.926 575.625,65.259 573.873,67.011 C572.121,68.763 569.784,69.639 566.865,69.639 L557.229,69.639 C555.915,69.639 555.111,70.153 554.820,71.172 C554.526,71.757 554.526,72.343 554.820,72.924 C555.111,73.509 555.477,74.019 555.915,74.457 L570.807,89.349 C572.559,91.101 573.945,93.219 574.968,95.700 C575.988,98.185 576.501,100.665 576.501,103.146 L576.501,146.508 C576.501,148.993 575.988,151.473 574.968,153.954 C573.945,156.439 572.559,158.553 570.807,160.305 ZM378.425,364.003 L352.144,364.003 C348.055,364.003 344.733,362.798 342.180,360.389 C339.624,357.980 338.347,354.658 338.347,350.425 L338.347,336.628 C338.347,334.876 337.471,333.1000 335.719,333.1000 C333.967,333.1000 333.091,334.876 333.091,336.628 L333.091,350.425 C333.091,354.658 331.887,357.980 329.478,360.389 C327.069,362.798 323.746,364.003 319.513,364.003 L267.610,364.003 C263.521,364.003 260.274,362.798 257.865,360.389 C255.456,357.980 254.252,354.729 254.252,350.644 L254.252,337.285 C254.252,335.533 253.447,334.657 251.843,334.657 C250.091,334.657 249.215,335.533 249.215,337.285 L249.215,350.644 C249.215,354.729 248.010,357.980 245.601,360.389 C243.192,362.798 239.941,364.003 235.856,364.003 L209.575,364.003 C203.587,364.003 198.844,362.251 195.341,358.747 C191.836,355.243 190.084,350.497 190.084,344.512 L190.084,217.492 C190.084,215.007 190.594,212.527 191.618,210.046 C192.637,207.561 194.027,205.447 195.778,203.695 L204.976,194.497 C206.729,192.745 208.843,191.355 211.327,190.336 C213.808,189.313 216.289,188.803 218.773,188.803 L268.268,188.803 C270.748,188.803 273.229,189.313 275.714,190.336 C278.194,191.355 280.312,192.745 282.065,194.497 L283.597,196.030 C285.788,198.220 288.197,199.315 290.825,199.315 C293.453,199.315 295.862,198.220 298.051,196.030 L299.585,194.497 C301.337,192.745 303.451,191.355 305.936,190.336 C308.416,189.313 310.897,188.803 313.382,188.803 L367.475,188.803 C369.955,188.803 372.436,189.313 374.920,190.336 C377.401,191.355 379.520,192.745 381.272,194.497 L392.221,205.447 C393.973,207.199 395.359,209.313 396.383,211.798 C397.402,214.279 397.915,216.759 397.915,219.244 L397.915,344.512 C397.915,350.497 396.164,355.243 392.659,358.747 C389.155,362.251 384.409,364.003 378.425,364.003 ZM392.221,158.553 L381.272,169.503 C379.520,171.255 377.401,172.645 374.920,173.664 C372.436,174.687 369.955,175.197 367.475,175.197 L313.382,175.197 C310.897,175.197 308.416,174.687 305.936,173.664 C303.451,172.645 301.337,171.255 299.585,169.503 L298.051,167.970 C295.862,165.780 293.453,164.685 290.825,164.685 C288.197,164.685 285.788,165.780 283.597,167.970 L282.065,169.503 C280.312,171.255 278.194,172.645 275.714,173.664 C273.229,174.687 270.748,175.197 268.268,175.197 L218.773,175.197 C216.289,175.197 213.808,174.687 211.327,173.664 C208.843,172.645 206.729,171.255 204.976,169.503 L195.778,160.305 C194.027,158.553 192.637,156.439 191.618,153.954 C190.594,151.473 190.084,148.993 190.084,146.508 L190.084,19.488 C190.084,13.503 191.836,8.757 195.341,5.253 C198.844,1.749 203.587,-0.003 209.575,-0.003 L235.856,-0.003 C239.941,-0.003 243.192,1.202 245.601,3.611 C248.010,6.020 249.215,9.271 249.215,13.356 L249.215,26.715 C249.215,28.467 250.091,29.343 251.843,29.343 C253.447,29.343 254.252,28.467 254.252,26.715 L254.252,13.356 C254.252,9.271 255.456,6.020 257.865,3.611 C260.274,1.202 263.521,-0.003 267.610,-0.003 L319.513,-0.003 C323.746,-0.003 327.069,1.202 329.478,3.611 C331.887,6.020 333.091,9.342 333.091,13.575 L333.091,27.372 C333.091,29.124 333.967,30.000 335.719,30.000 C337.471,30.000 338.347,29.124 338.347,27.372 L338.347,13.575 C338.347,9.342 339.624,6.020 342.180,3.611 C344.733,1.202 348.055,-0.003 352.144,-0.003 L378.425,-0.003 C384.409,-0.003 389.155,1.749 392.659,5.253 C396.164,8.757 397.915,13.503 397.915,19.488 L397.915,144.756 C397.915,147.241 397.402,149.721 396.383,152.202 C395.359,154.687 393.973,156.801 392.221,158.553 ZM170.953,348.805 L161.755,358.003 C160.003,359.755 157.885,361.145 155.404,362.164 C152.920,363.187 150.439,363.697 147.958,363.697 L30.355,363.697 C27.871,363.697 25.390,363.150 22.909,362.055 C20.425,360.960 18.310,359.612 16.558,358.003 L7.141,348.805 C5.389,347.053 3.1000,344.939 2.980,342.454 C1.957,339.973 1.447,337.493 1.447,335.008 L1.447,217.624 C1.447,215.143 1.957,212.663 2.980,210.178 C3.1000,207.697 5.389,205.579 7.141,203.827 L16.996,194.191 C18.748,192.586 20.863,191.235 23.347,190.140 C25.828,189.045 28.309,188.497 30.793,188.497 L147.520,188.497 C150.001,188.497 152.482,189.011 154.966,190.030 C157.447,191.053 159.565,192.439 161.317,194.191 L170.953,203.827 C172.705,205.579 174.091,207.697 175.114,210.178 C176.134,212.663 176.647,215.143 176.647,217.624 L176.647,335.008 C176.647,337.493 176.134,339.973 175.114,342.454 C174.091,344.939 172.705,347.053 170.953,348.805 ZM99.559,269.308 C100.873,267.994 100.873,266.756 99.559,265.585 C98.536,264.271 97.369,264.271 96.055,265.585 L89.047,272.593 L82.258,265.585 C80.944,264.271 79.702,264.271 78.535,265.585 C77.221,266.899 77.221,268.141 78.535,269.308 L85.543,276.097 L78.535,282.886 C77.365,284.057 77.365,285.295 78.535,286.609 C79.849,287.780 81.088,287.780 82.258,286.609 L89.047,279.820 L96.055,286.609 C97.369,287.632 98.536,287.632 99.559,286.609 C100.873,285.295 100.873,284.057 99.559,282.886 L92.770,276.097 L99.559,269.308 ZM156.609,175.197 L101.859,175.197 C98.646,175.197 96.055,174.212 94.084,172.241 C92.113,170.270 91.128,167.679 91.128,164.466 L91.128,153.954 C91.128,152.349 90.252,151.545 88.500,151.545 C86.748,151.545 85.872,152.349 85.872,153.954 L85.872,164.466 C85.872,167.679 84.921,170.270 83.025,172.241 C81.126,174.212 78.570,175.197 75.360,175.197 L20.391,175.197 C14.403,175.197 9.660,173.445 6.156,169.941 C2.652,166.437 0.900,161.695 0.900,155.706 L0.900,29.124 C0.900,26.643 1.410,24.163 2.433,21.678 C3.453,19.197 4.842,17.079 6.594,15.327 L16.230,5.691 C17.982,3.939 20.097,2.553 22.581,1.530 C25.062,0.511 27.543,-0.003 30.027,-0.003 L147.849,-0.003 C150.330,-0.003 152.811,0.511 155.295,1.530 C157.776,2.553 159.894,3.939 161.646,5.691 L170.406,14.451 C172.158,16.203 173.544,18.321 174.567,20.802 C175.587,23.287 176.100,25.767 176.100,28.248 L176.100,155.706 C176.100,161.695 174.348,166.437 170.844,169.941 C167.340,173.445 162.594,175.197 156.609,175.197 ZM99.012,73.362 C100.032,72.048 100.032,70.881 99.012,69.858 C97.989,68.839 96.822,68.839 95.508,69.858 L88.500,76.647 L81.711,69.858 C80.397,68.544 79.155,68.544 77.988,69.858 C77.403,70.443 77.112,71.029 77.112,71.610 C77.112,72.195 77.403,72.781 77.988,73.362 L84.996,80.370 L77.988,87.159 C76.818,88.330 76.818,89.568 77.988,90.882 C79.302,92.053 80.541,92.053 81.711,90.882 L88.500,83.874 L95.508,90.882 C96.090,91.467 96.675,91.758 97.260,91.758 C97.842,91.758 98.427,91.467 99.012,90.882 C100.326,89.568 100.326,88.330 99.012,87.159 L92.223,80.370 L99.012,73.362 Z"/>
</svg>